<svg xmlns="http://www.w3.org/2000/svg" version="1.1" xmlns:xlink="http://www.w3.org/1999/xlink" width="200" height="200"><svg xmlns="http://www.w3.org/2000/svg" version="1.1" xmlns:xlink="http://www.w3.org/1999/xlink" viewBox="0 0 200 200"><rect width="200" height="200" fill="url('#gradient')"></rect><defs><linearGradient id="SvgjsLinearGradient1001" gradientTransform="rotate(97 0.5 0.5)"><stop offset="0%" stop-color="#ffd700"></stop><stop offset="100%" stop-color="#938224"></stop></linearGradient></defs><g><g fill="#0066cc" transform="matrix(3.986762701966128,0,0,3.986762701966128,-1.402882670553268,128.33032263023787)" stroke="#0066cc" stroke-width="0.75"><path d="M6.74-4.46L6.74-14.22L10.16-14.22L10.16-4.46Q10.16-3.11 9.53-2.04Q8.90-0.98 7.77-0.39Q6.64 0.20 5.25 0.20L5.25 0.20Q2.93 0.20 1.64-0.98Q0.35-2.15 0.35-4.30L0.35-4.30L3.79-4.30Q3.79-3.32 4.13-2.88Q4.46-2.44 5.25-2.44L5.25-2.44Q5.97-2.44 6.35-2.97Q6.74-3.51 6.74-4.46L6.74-4.46ZM19.65-3.78L19.65-3.78Q19.65-4.53 19.12-4.95Q18.58-5.37 17.25-5.82Q15.91-6.27 15.06-6.69L15.06-6.69Q12.29-8.05 12.29-10.42L12.29-10.42Q12.29-11.60 12.98-12.50Q13.67-13.41 14.93-13.91Q16.19-14.41 17.76-14.41L17.76-14.41Q19.30-14.41 20.51-13.87Q21.73-13.32 22.40-12.31Q23.08-11.30 23.08-10L23.08-10L19.66-10Q19.66-10.87 19.13-11.35Q18.59-11.83 17.69-11.83L17.69-11.83Q16.77-11.83 16.24-11.42Q15.70-11.02 15.70-10.39L15.70-10.39Q15.70-9.84 16.29-9.40Q16.88-8.96 18.35-8.48Q19.82-8.01 20.77-7.46L20.77-7.46Q23.08-6.13 23.08-3.80L23.08-3.80Q23.08-1.93 21.67-0.87Q20.26 0.20 17.81 0.20L17.81 0.20Q16.08 0.20 14.68-0.42Q13.28-1.04 12.57-2.12Q11.87-3.20 11.87-4.61L11.87-4.61L15.30-4.61Q15.30-3.47 15.89-2.92Q16.48-2.38 17.81-2.38L17.81-2.38Q18.66-2.38 19.16-2.75Q19.65-3.12 19.65-3.78ZM36.88-7.47L36.88-6.82Q36.88-4.74 36.10-3.13Q35.33-1.53 33.91-0.67Q32.49 0.20 30.67 0.20Q28.86 0.20 27.45-0.64Q26.04-1.47 25.26-3.03Q24.47-4.58 24.43-6.59L24.43-6.59L24.43-7.39Q24.43-9.48 25.20-11.08Q25.97-12.68 27.40-13.54Q28.83-14.41 30.65-14.41L30.65-14.41Q32.46-14.41 33.88-13.55Q35.29-12.70 36.08-11.11Q36.87-9.52 36.88-7.47L36.88-7.47ZM33.39-6.76L33.39-7.41Q33.39-9.53 32.68-10.63Q31.97-11.73 30.65-11.73L30.65-11.73Q28.08-11.73 27.93-7.86L27.93-7.86L27.92-6.82Q27.92-4.73 28.61-3.60Q29.31-2.48 30.67-2.48L30.67-2.48Q31.97-2.48 32.68-3.58Q33.38-4.69 33.39-6.76L33.39-6.76ZM50.52-14.22L50.52 0L47.11 0L42.07-8.85L42.07 0L38.64 0L38.64-14.22L42.07-14.22L47.10-5.37L47.10-14.22L50.52-14.22Z"></path></g></g></svg><style>@media (prefers-color-scheme: light) { :root { filter: none; } }
@media (prefers-color-scheme: dark) { :root { filter: none; } }
</style></svg>